<mxfile host="app.diagrams.net" modified="2022-11-01T08:27:24.928Z" agent="5.0 (Windows NT 10.0; Win64; x64) AppleWebKit/537.36 (KHTML, like Gecko) Chrome/106.0.0.0 Safari/537.36" etag="SPaCz47YaX0VEERWofV_" version="20.5.1" type="github">
  <diagram id="7yDxIOqycqCWxQCyEVO3" name="Page-1">
    <mxGraphModel dx="1038" dy="547" grid="1" gridSize="10" guides="1" tooltips="1" connect="1" arrows="1" fold="1" page="1" pageScale="1" pageWidth="850" pageHeight="1100" math="0" shadow="0">
      <root>
        <mxCell id="0" />
        <mxCell id="1" parent="0" />
        <mxCell id="SSmAyF3q1hKz20ohs2oc-55" style="edgeStyle=none;rounded=0;orthogonalLoop=1;jettySize=auto;html=1;" edge="1" parent="1" source="SSmAyF3q1hKz20ohs2oc-1">
          <mxGeometry relative="1" as="geometry">
            <mxPoint x="245" y="165" as="targetPoint" />
          </mxGeometry>
        </mxCell>
        <mxCell id="SSmAyF3q1hKz20ohs2oc-1" value="&lt;span style=&quot;box-sizing: border-box; font-weight: 600; color: rgb(36, 41, 47); font-family: -apple-system, BlinkMacSystemFont, &amp;quot;Segoe UI&amp;quot;, Helvetica, Arial, sans-serif, &amp;quot;Apple Color Emoji&amp;quot;, &amp;quot;Segoe UI Emoji&amp;quot;; font-size: 16px; text-align: start; background-color: rgb(255, 255, 255);&quot; class=&quot;final-path&quot;&gt;DataCaptureConsoleApp1&lt;/span&gt;" style="html=1;dropTarget=0;" vertex="1" parent="1">
          <mxGeometry x="80" y="120" width="250" height="90" as="geometry" />
        </mxCell>
        <mxCell id="SSmAyF3q1hKz20ohs2oc-2" value="" style="shape=module;jettyWidth=8;jettyHeight=4;" vertex="1" parent="SSmAyF3q1hKz20ohs2oc-1">
          <mxGeometry x="1" width="20" height="20" relative="1" as="geometry">
            <mxPoint x="-27" y="7" as="offset" />
          </mxGeometry>
        </mxCell>
        <mxCell id="SSmAyF3q1hKz20ohs2oc-3" value="&lt;span style=&quot;box-sizing: border-box; font-weight: 600; color: rgb(36, 41, 47); font-family: -apple-system, BlinkMacSystemFont, &amp;quot;Segoe UI&amp;quot;, Helvetica, Arial, sans-serif, &amp;quot;Apple Color Emoji&amp;quot;, &amp;quot;Segoe UI Emoji&amp;quot;; font-size: 16px; text-align: start; background-color: rgb(255, 255, 255);&quot; class=&quot;final-path&quot;&gt;DataCaptureConsoleApp2&lt;/span&gt;" style="html=1;dropTarget=0;" vertex="1" parent="1">
          <mxGeometry x="570" y="120" width="250" height="90" as="geometry" />
        </mxCell>
        <mxCell id="SSmAyF3q1hKz20ohs2oc-4" value="" style="shape=module;jettyWidth=8;jettyHeight=4;" vertex="1" parent="SSmAyF3q1hKz20ohs2oc-3">
          <mxGeometry x="1" width="20" height="20" relative="1" as="geometry">
            <mxPoint x="-27" y="7" as="offset" />
          </mxGeometry>
        </mxCell>
        <mxCell id="SSmAyF3q1hKz20ohs2oc-5" value="&lt;span style=&quot;box-sizing: border-box; font-weight: 600; color: rgb(36, 41, 47); font-family: -apple-system, BlinkMacSystemFont, &amp;quot;Segoe UI&amp;quot;, Helvetica, Arial, sans-serif, &amp;quot;Apple Color Emoji&amp;quot;, &amp;quot;Segoe UI Emoji&amp;quot;; font-size: 16px; text-align: start; background-color: rgb(255, 255, 255);&quot; class=&quot;final-path&quot;&gt;RabbitMQ&lt;/span&gt;" style="html=1;dropTarget=0;" vertex="1" parent="1">
          <mxGeometry x="280" y="300" width="320" height="90" as="geometry" />
        </mxCell>
        <mxCell id="SSmAyF3q1hKz20ohs2oc-6" value="" style="shape=module;jettyWidth=8;jettyHeight=4;" vertex="1" parent="SSmAyF3q1hKz20ohs2oc-5">
          <mxGeometry x="1" width="20" height="20" relative="1" as="geometry">
            <mxPoint x="-27" y="7" as="offset" />
          </mxGeometry>
        </mxCell>
        <mxCell id="SSmAyF3q1hKz20ohs2oc-7" value="&lt;span style=&quot;box-sizing: border-box; font-weight: 600; color: rgb(36, 41, 47); font-family: -apple-system, BlinkMacSystemFont, &amp;quot;Segoe UI&amp;quot;, Helvetica, Arial, sans-serif, &amp;quot;Apple Color Emoji&amp;quot;, &amp;quot;Segoe UI Emoji&amp;quot;; font-size: 16px; text-align: start; background-color: rgb(255, 255, 255);&quot; class=&quot;final-path&quot;&gt;MainProcessingConsoleApp&lt;/span&gt;" style="html=1;dropTarget=0;" vertex="1" parent="1">
          <mxGeometry x="310" y="520" width="260" height="90" as="geometry" />
        </mxCell>
        <mxCell id="SSmAyF3q1hKz20ohs2oc-8" value="" style="shape=module;jettyWidth=8;jettyHeight=4;" vertex="1" parent="SSmAyF3q1hKz20ohs2oc-7">
          <mxGeometry x="1" width="20" height="20" relative="1" as="geometry">
            <mxPoint x="-27" y="7" as="offset" />
          </mxGeometry>
        </mxCell>
        <mxCell id="SSmAyF3q1hKz20ohs2oc-66" value="" style="rounded=0;orthogonalLoop=1;jettySize=auto;html=1;endArrow=none;endFill=0;sketch=0;sourcePerimeterSpacing=0;targetPerimeterSpacing=0;" edge="1" target="SSmAyF3q1hKz20ohs2oc-68" parent="1" source="SSmAyF3q1hKz20ohs2oc-7">
          <mxGeometry relative="1" as="geometry">
            <mxPoint x="415" y="465" as="sourcePoint" />
          </mxGeometry>
        </mxCell>
        <mxCell id="SSmAyF3q1hKz20ohs2oc-67" value="" style="rounded=0;orthogonalLoop=1;jettySize=auto;html=1;endArrow=halfCircle;endFill=0;entryX=0.5;entryY=0.5;endSize=6;strokeWidth=1;sketch=0;exitX=0.5;exitY=1;exitDx=0;exitDy=0;" edge="1" target="SSmAyF3q1hKz20ohs2oc-68" parent="1" source="SSmAyF3q1hKz20ohs2oc-5">
          <mxGeometry relative="1" as="geometry">
            <mxPoint x="455" y="465" as="sourcePoint" />
          </mxGeometry>
        </mxCell>
        <mxCell id="SSmAyF3q1hKz20ohs2oc-68" value="" style="ellipse;whiteSpace=wrap;html=1;align=center;aspect=fixed;resizable=0;points=[];outlineConnect=0;sketch=0;" vertex="1" parent="1">
          <mxGeometry x="434" y="460" width="10" height="10" as="geometry" />
        </mxCell>
        <mxCell id="SSmAyF3q1hKz20ohs2oc-69" value="" style="rounded=0;orthogonalLoop=1;jettySize=auto;html=1;endArrow=none;endFill=0;sketch=0;sourcePerimeterSpacing=0;targetPerimeterSpacing=0;exitX=1;exitY=0.5;exitDx=0;exitDy=0;" edge="1" target="SSmAyF3q1hKz20ohs2oc-71" parent="1" source="SSmAyF3q1hKz20ohs2oc-1">
          <mxGeometry relative="1" as="geometry">
            <mxPoint x="340" y="245" as="sourcePoint" />
            <Array as="points">
              <mxPoint x="360" y="165" />
            </Array>
          </mxGeometry>
        </mxCell>
        <mxCell id="SSmAyF3q1hKz20ohs2oc-70" value="" style="rounded=0;orthogonalLoop=1;jettySize=auto;html=1;endArrow=halfCircle;endFill=0;entryX=0.5;entryY=0.5;endSize=6;strokeWidth=1;sketch=0;exitX=0.25;exitY=0;exitDx=0;exitDy=0;" edge="1" target="SSmAyF3q1hKz20ohs2oc-71" parent="1" source="SSmAyF3q1hKz20ohs2oc-5">
          <mxGeometry relative="1" as="geometry">
            <mxPoint x="380" y="245" as="sourcePoint" />
          </mxGeometry>
        </mxCell>
        <mxCell id="SSmAyF3q1hKz20ohs2oc-71" value="" style="ellipse;whiteSpace=wrap;html=1;align=center;aspect=fixed;resizable=0;points=[];outlineConnect=0;sketch=0;" vertex="1" parent="1">
          <mxGeometry x="355" y="240" width="10" height="10" as="geometry" />
        </mxCell>
        <mxCell id="SSmAyF3q1hKz20ohs2oc-75" value="" style="rounded=0;orthogonalLoop=1;jettySize=auto;html=1;endArrow=none;endFill=0;sketch=0;sourcePerimeterSpacing=0;targetPerimeterSpacing=0;exitX=0;exitY=0.5;exitDx=0;exitDy=0;" edge="1" target="SSmAyF3q1hKz20ohs2oc-77" parent="1" source="SSmAyF3q1hKz20ohs2oc-3">
          <mxGeometry relative="1" as="geometry">
            <mxPoint x="490" y="245" as="sourcePoint" />
            <Array as="points">
              <mxPoint x="520" y="165" />
            </Array>
          </mxGeometry>
        </mxCell>
        <mxCell id="SSmAyF3q1hKz20ohs2oc-76" value="" style="rounded=0;orthogonalLoop=1;jettySize=auto;html=1;endArrow=halfCircle;endFill=0;entryX=0.5;entryY=0.5;endSize=6;strokeWidth=1;sketch=0;exitX=0.75;exitY=0;exitDx=0;exitDy=0;" edge="1" target="SSmAyF3q1hKz20ohs2oc-77" parent="1" source="SSmAyF3q1hKz20ohs2oc-5">
          <mxGeometry relative="1" as="geometry">
            <mxPoint x="530" y="245" as="sourcePoint" />
          </mxGeometry>
        </mxCell>
        <mxCell id="SSmAyF3q1hKz20ohs2oc-77" value="" style="ellipse;whiteSpace=wrap;html=1;align=center;aspect=fixed;resizable=0;points=[];outlineConnect=0;sketch=0;" vertex="1" parent="1">
          <mxGeometry x="514" y="240" width="10" height="10" as="geometry" />
        </mxCell>
      </root>
    </mxGraphModel>
  </diagram>
</mxfile>
